<svg xmlns="http://www.w3.org/2000/svg" xmlns:xlink="http://www.w3.org/1999/xlink" width="32" height="37" viewBox="0 0 32 37">
  <defs>
    <style>
      .cls-1 {
        fill: #fff;
        fill-rule: evenodd;
        filter: url(#filter);
      }
    </style>
    <filter id="filter" x="986" y="1131" width="32" height="37" filterUnits="userSpaceOnUse">
      <feOffset result="offset" dx="0.5" dy="0.866" in="SourceAlpha"/>
      <feGaussianBlur result="blur" stdDeviation="1.732"/>
      <feFlood result="flood" flood-color="#313235" flood-opacity="0.5"/>
      <feComposite result="composite" operator="in" in2="blur"/>
      <feBlend result="blend" in="SourceGraphic"/>
    </filter>
  </defs>
  <path id="ла" class="cls-1" d="M987.644,1146.63h3.682v-14.49h8.894a32.51,32.51,0,0,1,7.25.5c3.63,0.95,6.41,4.22,6.41,9.31,0,5.82-3.73,8.87-7.09,9.59a30.646,30.646,0,0,1-6.26.46h-3.036v2.73h15.016v5.36H997.494V1164h-6.168v-3.91h-3.682v-5.36h3.682V1152h-3.682v-5.37Zm9.85-9.09v9.05h2.358a13.77,13.77,0,0,0,4.658-.5,4.35,4.35,0,0,0-.86-8.32,24.467,24.467,0,0,0-4.208-.23h-1.948Z" transform="translate(-986 -1131)"/>
</svg>
